<svg width="30" height="30" viewBox="0 0 30 30" fill="none" xmlns="http://www.w3.org/2000/svg">
<path d="M30 15C30 23.2843 23.2843 30 15 30C6.71573 30 0 23.2843 0 15C0 6.71573 6.71573 0 15 0C23.2843 0 30 6.71573 30 15Z" fill="rgb(205,167,135)"/>
<path d="M14.3686 13.3828H12.1911C12.1513 13.1011 12.0701 12.8509 11.9474 12.6321C11.8248 12.41 11.6674 12.2211 11.4751 12.0653C11.2829 11.9096 11.0608 11.7902 10.8089 11.7074C10.5604 11.6245 10.2902 11.5831 9.99858 11.5831C9.47159 11.5831 9.01255 11.714 8.62145 11.9759C8.23035 12.2344 7.92708 12.6122 7.71165 13.1094C7.49621 13.6032 7.38849 14.2031 7.38849 14.9091C7.38849 15.6349 7.49621 16.2448 7.71165 16.7386C7.9304 17.2325 8.23532 17.6054 8.62642 17.8572C9.01752 18.1091 9.46993 18.2351 9.98366 18.2351C10.272 18.2351 10.5388 18.197 10.7841 18.1207C11.0327 18.0445 11.2531 17.9335 11.4453 17.7876C11.6375 17.6385 11.7966 17.4579 11.9226 17.2457C12.0518 17.0336 12.1413 16.7917 12.1911 16.5199L14.3686 16.5298C14.3123 16.9972 14.1714 17.4479 13.946 17.8821C13.724 18.313 13.424 18.6991 13.0462 19.0405C12.6716 19.3786 12.2242 19.647 11.7038 19.8459C11.1868 20.0414 10.6018 20.1392 9.94886 20.1392C9.04072 20.1392 8.22869 19.9337 7.51278 19.5227C6.80019 19.1117 6.23674 18.5168 5.82244 17.7379C5.41146 16.959 5.20597 16.0161 5.20597 14.9091C5.20597 13.7988 5.41477 12.8542 5.83239 12.0753C6.25 11.2964 6.81676 10.7031 7.53267 10.2955C8.24858 9.88447 9.05398 9.67898 9.94886 9.67898C10.5388 9.67898 11.0857 9.76184 11.5895 9.92756C12.0966 10.0933 12.5457 10.3352 12.9368 10.6534C13.3279 10.9683 13.6461 11.3544 13.8913 11.8118C14.1399 12.2692 14.299 12.7929 14.3686 13.3828ZM17.7518 9.81818L20.2127 17.554H20.3072L22.7731 9.81818H25.1594L21.6495 20H18.8754L15.3604 9.81818H17.7518Z" fill="rgb(37, 42, 54)"/>
</svg>
