<svg width="30" height="30" viewBox="0 0 30 30" fill="none" xmlns="http://www.w3.org/2000/svg">
    <path d="M30 15C30 23.2843 23.2843 30 15 30C6.71573 30 0 23.2843 0 15C0 6.71573 6.71573 0 15 0C23.2843 0 30 6.71573 30 15Z" fill="rgb(205, 167, 135)"/>
    <path d="M14.7186 14.3828H12.5411C12.5013 14.1011 12.4201 13.8509 12.2974 13.6321C12.1748 13.41 12.0174 13.2211 11.8251 13.0653C11.6329 12.9096 11.4108 12.7902 11.1589 12.7074C10.9104 12.6245 10.6402 12.5831 10.3486 12.5831C9.82159 12.5831 9.36255 12.714 8.97145 12.9759C8.58035 13.2344 8.27708 13.6122 8.06165 14.1094C7.84621 14.6032 7.73849 15.2031 7.73849 15.9091C7.73849 16.6349 7.84621 17.2448 8.06165 17.7386C8.2804 18.2325 8.58532 18.6054 8.97642 18.8572C9.36752 19.1091 9.81993 19.2351 10.3337 19.2351C10.622 19.2351 10.8888 19.197 11.1341 19.1207C11.3827 19.0445 11.6031 18.9335 11.7953 18.7876C11.9875 18.6385 12.1466 18.4579 12.2726 18.2457C12.4018 18.0336 12.4913 17.7917 12.5411 17.5199L14.7186 17.5298C14.6623 17.9972 14.5214 18.4479 14.296 18.8821C14.074 19.313 13.774 19.6991 13.3962 20.0405C13.0216 20.3786 12.5742 20.647 12.0538 20.8459C11.5368 21.0414 10.9518 21.1392 10.2989 21.1392C9.39072 21.1392 8.57869 20.9337 7.86278 20.5227C7.15019 20.1117 6.58674 19.5168 6.17244 18.7379C5.76146 17.959 5.55597 17.0161 5.55597 15.9091C5.55597 14.7988 5.76477 13.8542 6.18239 13.0753C6.6 12.2964 7.16676 11.7031 7.88267 11.2955C8.59858 10.8845 9.40398 10.679 10.2989 10.679C10.8888 10.679 11.4357 10.7618 11.9395 10.9276C12.4466 11.0933 12.8957 11.3352 13.2868 11.6534C13.6779 11.9683 13.9961 12.3544 14.2413 12.8118C14.4899 13.2692 14.649 13.7929 14.7186 14.3828ZM17.4018 10.8182L19.8627 18.554H19.9572L22.4231 10.8182H24.8094L21.2995 21H18.5254L15.0104 10.8182H17.4018Z" fill="rgb(37, 42, 54)"/>
</svg>
