<svg width="30" height="30" viewBox="0 0 30 30" fill="none" xmlns="http://www.w3.org/2000/svg">
<path d="M30 15C30 23.2843 23.2843 30 15 30C6.71573 30 0 23.2843 0 15C0 6.71573 6.71573 0 15 0C23.2843 0 30 6.71573 30 15Z" fill="rgb(205, 167, 135)"/>
<path d="M7 10H24M7 10V17C7 18.8856 7 19.8284 7.58579 20.4142C8.17157 21 9.11438 21 11 21H20C21.8856 21 22.8284 21 23.4142 20.4142C24 19.8284 24 18.8856 24 17V10M7 10L13.1016 14.5715C14.2565 15.4367 14.8339 15.8693 15.5 15.8693C16.1661 15.8693 16.7435 15.4367 17.8984 14.5715L24 10" stroke="rgb(37, 42, 54)" stroke-width="1.5"/>
</svg>
