<svg width="30" height="30" viewBox="0 0 30 30" fill="none" xmlns="http://www.w3.org/2000/svg">
<path d="M29 15C29 22.732 22.732 29 15 29C7.26801 29 1 22.732 1 15C1 7.26801 7.26801 1 15 1C22.732 1 29 7.26801 29 15Z" fill="black"/>
<mask id="mask0_1_20" style="mask-type:alpha" maskUnits="userSpaceOnUse" x="4" y="4" width="22" height="22">
<path d="M26 15C26 21.0751 21.0751 26 15 26C8.92487 26 4 21.0751 4 15C4 8.92487 8.92487 4 15 4C21.0751 4 26 8.92487 26 15Z" fill="white"/>
</mask>
<g mask="url(#mask0_1_20)">
<rect x="7" y="6" width="16" height="16" fill="white"/>
<path d="M21.4167 4H8.58333C6.05242 4 4 6.05242 4 8.58333V21.4167C4 23.9476 6.05242 26 8.58333 26H21.4167C23.9485 26 26 23.9476 26 21.4167V8.58333C26 6.05242 23.9485 4 21.4167 4ZM11.3333 21.4167H8.58333V11.3333H11.3333V21.4167ZM9.95833 10.171C9.07283 10.171 8.35417 9.44683 8.35417 8.554C8.35417 7.66117 9.07283 6.937 9.95833 6.937C10.8438 6.937 11.5625 7.66117 11.5625 8.554C11.5625 9.44683 10.8448 10.171 9.95833 10.171ZM22.3333 21.4167H19.5833V16.2797C19.5833 13.1923 15.9167 13.4261 15.9167 16.2797V21.4167H13.1667V11.3333H15.9167V12.9513C17.1963 10.5808 22.3333 10.4057 22.3333 15.2209V21.4167Z" fill="black"/>
</g>
</svg>
