<?xml version="1.0" encoding="UTF-8"?>
<svg width="64px" height="64px" viewBox="0 0 64 64" version="1.1" xmlns="http://www.w3.org/2000/svg" xmlns:xlink="http://www.w3.org/1999/xlink">
    <!-- Generator: Sketch 51.1 (57501) - http://www.bohemiancoding.com/sketch -->
    <title>classroom</title>
    <desc>Created with Sketch.</desc>
    <defs>
        <filter x="-2.5%" y="-4.2%" width="105.0%" height="110.4%" filterUnits="objectBoundingBox" id="filter-1">
            <feOffset dx="0" dy="1" in="SourceAlpha" result="shadowOffsetOuter1"></feOffset>
            <feGaussianBlur stdDeviation="1.5" in="shadowOffsetOuter1" result="shadowBlurOuter1"></feGaussianBlur>
            <feColorMatrix values="0 0 0 0 0   0 0 0 0 0   0 0 0 0 0  0 0 0 0.5 0" type="matrix" in="shadowBlurOuter1" result="shadowMatrixOuter1"></feColorMatrix>
            <feMerge>
                <feMergeNode in="shadowMatrixOuter1"></feMergeNode>
                <feMergeNode in="SourceGraphic"></feMergeNode>
            </feMerge>
        </filter>
    </defs>
    <g id="Page-1" stroke="none" stroke-width="1" fill="none" fill-rule="evenodd">
        <g id="Timeline" transform="translate(-131.000000, -231.000000)" fill="#FFFFFF" fill-rule="nonzero">
            <g id="Timeline-Card1" filter="url(#filter-1)" transform="translate(20.226064, 213.753247)">
                <g id="classroom" transform="translate(114.614362, 19.909091)">
                    <path d="M50.2769237,1.71900826 L23.5175638,1.71900826 C22.8505797,1.71900826 22.3099613,2.26205969 22.3099613,2.93204543 L22.3099613,12.3838954 L23.6492626,11.5485999 C23.9900471,11.3359494 24.3540148,11.192506 24.7250574,11.1136777 L24.7250574,4.14508259 L49.0692124,4.14508259 L49.0692124,21.639932 L24.7251662,21.639932 L24.7251662,18.8093298 L22.3099613,20.3157044 L22.3099613,22.8530785 C22.3099613,23.5230643 22.8505797,24.0661157 23.5175638,24.0661157 L50.2769237,24.0661157 C50.9437989,24.0661157 51.4845261,23.5230643 51.4845261,22.8530785 L51.4845261,2.93204543 C51.4845261,2.26205969 50.9437989,1.71900826 50.2769237,1.71900826 Z" id="Shape"></path>
                    <path d="M32.4254409,8.96818312 C32.1366384,8.54320928 31.6057325,8.47054357 31.2395599,8.80540275 L27.4584139,12.2645429 C27.8194418,12.5383307 28.136145,12.9051031 28.3786441,13.3582019 C28.4474066,13.4864288 28.5070668,13.6183291 28.560098,13.7520661 L32.2852445,10.3441249 C32.6515162,10.0091509 32.7142434,9.39304216 32.4254409,8.96818312 Z" id="Shape"></path>
                    <ellipse id="Oval" cx="13.729207" cy="3.43801653" rx="3.43230174" ry="3.43801653"></ellipse>
                    <path d="M28.9107318,14.2561645 C28.4002328,13.4486613 27.3200991,13.2004566 26.4977738,13.701781 L22.9489583,15.8660324 C22.9341744,12.9752628 22.9420212,14.5093959 22.9325823,12.6477487 C22.9210963,10.4131242 21.060942,8.59504132 18.7858153,8.59504132 L17.0619002,8.59504132 C15.5890838,12.3469317 16.0635329,10.954215 14.8133845,14.138876 L15.3391223,11.8901769 C15.3755135,11.7217283 15.3491299,11.5461308 15.2646343,11.3953313 L14.5522783,10.1226956 L15.1844601,8.99348699 C15.2787358,8.82503841 15.1544375,8.61861072 14.9587215,8.61861072 L13.2220695,8.61861072 C13.0264673,8.61861072 12.9019415,8.82503841 12.9963309,8.99348699 L13.6297637,10.1250414 L12.916043,11.4000228 C12.8332533,11.5480297 12.8061874,11.7200528 12.8396217,11.8855971 L13.2950792,14.138876 C13.0495529,13.5134493 11.3522488,9.18974968 11.1187771,8.59504132 L9.3599493,8.59504132 C7.08493634,8.59504132 5.2246683,10.4130125 5.21318236,12.6477487 L5.14847442,25.2925621 C5.14369808,26.2431571 5.92417366,27.0175961 6.89194974,27.0223993 C6.89502024,27.0223993 6.89786329,27.0223993 6.90093379,27.0223993 C7.86450214,27.0223993 8.64816194,26.2574552 8.65293828,25.3098761 L8.71764622,12.6650627 C8.71764622,12.663052 8.71764622,12.6610414 8.71764622,12.6591424 C8.72037555,12.4714809 8.8767436,12.3211282 9.06779693,12.3225804 C9.25885025,12.3239208 9.41283013,12.4765075 9.41283013,12.6641691 L9.41362619,30.5792558 C11.0177918,30.5122338 12.5041412,31.0805802 13.6191875,32.0786491 L13.6191875,25.0895972 L14.527032,25.0895972 L14.527032,33.106878 C15.166492,34.0304409 15.5407518,35.1446813 15.5407518,36.3433694 C15.5407518,37.4354925 15.2300627,38.4576894 14.6913606,39.3293102 C15.2447329,39.3318794 15.7821841,39.4040398 16.2947301,39.5371901 C16.9857063,38.948402 17.816902,38.5149932 18.7325933,38.2932622 C18.7325933,7.08983938 18.6944964,26.3826746 18.6944964,12.6665148 C18.6944964,12.4677947 18.8581426,12.3067185 19.0604545,12.3063834 C19.2627663,12.3059366 19.4270949,12.4663425 19.4280047,12.6650627 C19.4341457,13.8722402 19.4534785,17.6459128 19.4601881,18.9596553 C19.4633723,19.582848 19.8093153,20.1557742 20.3646209,20.4572614 C20.9189029,20.7581901 21.5968011,20.7425516 22.1367542,20.4132503 L28.3464422,16.6261734 C29.1684263,16.1249607 29.4212308,15.0636676 28.9107318,14.2561645 Z" id="Shape"></path>
                    <ellipse id="Oval" cx="46.3360735" cy="34.3801653" rx="3.43230174" ry="3.43801653"></ellipse>
                    <path d="M56.6120617,45.586361 C56.6003438,43.1987054 54.7042357,41.2561983 52.3850789,41.2561983 C51.3844586,41.2561983 43.9982447,41.2561983 43.1004571,41.2561983 C43.4987559,42.0531359 43.7251193,42.9552719 43.7251193,43.9115293 C43.7251193,44.9268692 43.4617405,45.9876486 42.9037718,46.9312776 C44.9740055,47.0174209 46.7879789,48.1614119 47.8481743,49.8512397 L52.2921024,49.8512397 L52.2921024,45.6308984 C52.2921024,45.4232075 52.4519913,45.2529506 52.6536048,45.2458472 C52.8552182,45.2387438 53.026168,45.3974999 53.0397476,45.6046269 C53.0397476,45.6046269 53.0397476,45.6047397 53.0397476,45.6048525 L53.0605551,49.8512397 L56.6329787,49.8512397 L56.6120617,45.586361 Z" id="Shape"></path>
                    <path d="M31.7702541,43.7100559 C31.7702541,42.8248412 32.0021283,41.9904065 32.4094807,41.2561983 C30.0225215,41.2561983 27.2197505,41.2561983 24.2464903,41.2561983 C24.6230418,41.9680427 24.8361534,42.7699576 24.8361534,43.6186518 C24.8361534,44.6158905 24.5400746,45.5601948 24.0261122,46.3608786 C25.713436,46.36847 27.2701816,47.031586 28.3949557,48.1322314 C29.4853499,47.1246315 30.9717089,46.4996775 32.6068665,46.491368 C32.039111,45.624311 31.7702541,44.6507697 31.7702541,43.7100559 Z" id="Shape"></path>
                    <path d="M29.1746156,30.9421488 C27.2791252,30.9421488 25.7422631,32.4811857 25.7422631,34.3801653 C25.7422631,36.2747714 27.2761806,37.8181818 29.1746156,37.8181818 C31.0548754,37.8181818 32.6068665,36.29613 32.6068665,34.3801653 C32.6068665,32.4833216 31.073152,30.9421488 29.1746156,30.9421488 Z" id="Shape"></path>
                    <path d="M12.9150769,43.8404831 C12.9150769,42.9145948 13.1206855,42.0393095 13.4838642,41.2620884 C13.330709,41.2540099 13.9749702,41.2565905 4.0774827,41.2565905 C1.86288086,41.2565905 0.0314299388,43.179503 0.0201824356,45.5655841 L0,49.8512397 C1.56697692,49.8512397 1.88222236,49.8512397 3.42901684,49.8512397 L3.44909416,45.5840973 C3.45014533,45.3727094 3.61107923,45.2023872 3.80890914,45.2029482 C4.00673906,45.2036214 4.16672691,45.3748412 4.16672691,45.5860048 L4.16672691,49.8512397 L8.97340521,49.8512397 C10.0093318,48.0836143 11.7905369,46.9737152 13.729207,46.8884419 C13.202992,45.983872 12.9150769,44.9400597 12.9150769,43.8404831 Z" id="Shape"></path>
                    <path d="M8.58070358,30.9421488 C6.68521321,30.9421488 5.14845261,32.4813891 5.14845261,34.3801653 C5.14845261,36.2702963 6.67617643,37.8181818 8.58070358,37.8181818 C10.4627911,37.8181818 12.0130561,36.2910446 12.0130561,34.3801653 C12.0130561,32.4812874 10.4762955,30.9421488 8.58070358,30.9421488 Z" id="Shape"></path>
                    <path d="M46.3151053,52.4909226 C46.3035783,50.14193 44.4027181,48.2310581 42.0778831,48.2310581 C41.8313147,48.2310581 32.9694527,48.2310581 32.6908282,48.2310581 C30.366103,48.2310581 28.3433857,50.1418191 28.3316392,52.4907008 L28.3014493,52.391874 C28.2899223,50.0524203 26.3977348,48.1322314 24.0642271,48.1322314 C21.3697591,48.1322314 17.4998646,48.1322314 14.6771722,48.1322314 C12.3524471,48.1322314 10.3297298,50.0429924 10.3179832,52.391874 L10.2969052,56.7271618 L13.8780754,56.7271618 L13.8990436,52.4100644 C13.8999218,52.2301576 14.0447232,52.0850786 14.2226784,52.0855223 C14.4006336,52.0859659 14.5445566,52.2319322 14.5445566,52.4117281 L14.5445566,56.7272727 C16.6436816,56.7272727 22.0626976,56.7272727 24.0287678,56.7272727 L24.0287678,52.4117281 C24.0287678,52.2191768 24.1830103,52.0630062 24.3735904,52.0624516 C24.5640606,52.0620079 24.7192911,52.2174022 24.7202792,52.4099534 L24.7412474,56.7271618 C25.4733777,56.7271618 31.1346807,56.7271618 31.8917314,56.7271618 L31.9126996,52.5088911 C31.9126996,52.5088911 31.9126996,52.5087802 31.9126996,52.5086693 C31.9136876,52.3288734 32.0584889,52.1839053 32.2364441,52.184349 C32.4143993,52.1847927 32.5582126,52.330759 32.5582126,52.5105548 L32.5582126,56.7271618 C34.6573375,56.7271618 40.0763536,56.7271618 42.0424238,56.7271618 L42.0424238,52.5105548 C42.0424238,52.3180036 42.1966663,52.1618329 42.3872463,52.1612783 C42.5777166,52.1608347 42.7329471,52.3162289 42.7339351,52.5087802 L42.7549033,56.7270509 L46.3360735,56.7270509 L46.3151053,52.4909226 Z" id="Shape"></path>
                    <ellipse id="Oval" cx="18.8776596" cy="42.9752066" rx="3.43230174" ry="3.43801653"></ellipse>
                    <ellipse id="Oval" cx="37.7553191" cy="42.9752066" rx="3.43230174" ry="3.43801653"></ellipse>
                </g>
            </g>
        </g>
    </g>
</svg>