<?xml version="1.0" encoding="UTF-8"?>
<svg width="56px" height="44px" viewBox="0 0 56 44" version="1.1" xmlns="http://www.w3.org/2000/svg" xmlns:xlink="http://www.w3.org/1999/xlink">
    <!-- Generator: Sketch 51.1 (57501) - http://www.bohemiancoding.com/sketch -->
    <title>code</title>
    <desc>Created with Sketch.</desc>
    <defs>
        <filter x="-2.5%" y="-3.3%" width="105.0%" height="109.1%" filterUnits="objectBoundingBox" id="filter-1">
            <feOffset dx="0" dy="1" in="SourceAlpha" result="shadowOffsetOuter1"></feOffset>
            <feGaussianBlur stdDeviation="1.5" in="shadowOffsetOuter1" result="shadowBlurOuter1"></feGaussianBlur>
            <feColorMatrix values="0 0 0 0 0   0 0 0 0 0   0 0 0 0 0  0 0 0 0.5 0" type="matrix" in="shadowBlurOuter1" result="shadowMatrixOuter1"></feColorMatrix>
            <feMerge>
                <feMergeNode in="shadowMatrixOuter1"></feMergeNode>
                <feMergeNode in="SourceGraphic"></feMergeNode>
            </feMerge>
        </filter>
    </defs>
    <g id="Page-1" stroke="none" stroke-width="1" fill="none" fill-rule="evenodd">
        <g id="Timeline" transform="translate(-321.000000, -857.000000)" fill="#FFFFFF" fill-rule="nonzero">
            <g id="Timeline-Card3" filter="url(#filter-1)" transform="translate(388.500000, 888.889610) scale(-1, 1) translate(-388.500000, -888.889610) translate(288.000000, 828.389610)">
                <g id="code" transform="translate(115.000000, 31.000000)">
                    <path d="M30.3779343,0.510110594 L28.7023161,0.0418434217 C28.4866415,-0.0314740589 28.2741845,-0.00841764068 28.067595,0.110819736 C27.860343,0.230153582 27.7203769,0.409299058 27.6484538,0.647966751 L17.5703284,36.2057872 C17.4984053,36.4445513 17.5209286,36.6697132 17.6379929,36.8805974 C17.7550571,37.0918675 17.9304169,37.2341613 18.164924,37.3074788 L19.840069,37.7759389 C20.0562168,37.8498352 20.2679167,37.8266823 20.475074,37.707252 C20.682326,37.5873393 20.8220082,37.4087727 20.8938366,37.1704909 L30.972246,1.61209162 C31.0440744,1.37342393 31.0217404,1.14826209 30.9044869,0.936895507 C30.787328,0.725625398 30.6121575,0.583331604 30.3779343,0.510110594 Z" id="Shape"></path>
                    <path d="M16.1808511,7.64947663 C16.1808511,7.41492898 16.0880507,7.20721116 15.9027422,7.02689199 L14.5124902,5.67345538 C14.3271817,5.4930414 14.113926,5.4025974 13.8730152,5.4025974 C13.6321043,5.4025974 13.4187512,5.49313621 13.2335401,5.67345538 L0.278108834,18.2866959 C0.0925081906,18.4671099 0,18.6747329 0,18.9092805 C0,19.1438282 0.0928003217,19.3514512 0.278108834,19.5317704 L13.2334427,32.1450109 C13.4186539,32.3257092 13.6316175,32.4155844 13.8729178,32.4155844 C14.1142181,32.4155844 14.3271817,32.3254248 14.5123928,32.1450109 L15.9026449,30.7923327 C16.0879534,30.6120135 16.1807537,30.4042957 16.1807537,30.1694636 C16.1807537,29.9352004 16.0879534,29.7275774 15.9026449,29.5472582 L4.97664852,18.9092805 L15.9027422,8.27206127 C16.0883429,8.0917421 16.1808511,7.88402428 16.1808511,7.64947663 Z" id="Shape"></path>
                    <path d="M49.613025,18.2865602 L36.6564439,5.67345252 C36.4712205,5.49313525 36.2578532,5.4025974 36.017316,5.4025974 C35.7759997,5.4025974 35.5634116,5.49313525 35.3775065,5.67345252 L33.9877467,7.02678009 C33.8025233,7.20719216 33.7101064,7.41452858 33.7101064,7.64935817 C33.7101064,7.88418776 33.8024259,8.09161898 33.9877467,8.27193625 L44.9147585,18.9093279 L33.9877467,29.5472884 C33.8025233,29.7276057 33.7101064,29.9353213 33.7101064,30.1694873 C33.7101064,30.4044117 33.8024259,30.6120325 33.9877467,30.7923498 L35.3775065,32.1450137 C35.5634116,32.3257102 35.7760971,32.4155844 36.017316,32.4155844 C36.2579506,32.4155844 36.4712205,32.3254258 36.6564439,32.1450137 L49.613025,19.5320008 C49.7983457,19.3516835 49.8909574,19.1436835 49.8909574,18.9091383 C49.8909574,18.6744983 49.7983457,18.4668775 49.613025,18.2865602 Z" id="Shape"></path>
                </g>
            </g>
        </g>
    </g>
</svg>