<?xml version="1.0" encoding="UTF-8"?>
<svg width="56px" height="58px" viewBox="0 0 56 58" version="1.1" xmlns="http://www.w3.org/2000/svg" xmlns:xlink="http://www.w3.org/1999/xlink">
    <!-- Generator: Sketch 51.1 (57501) - http://www.bohemiancoding.com/sketch -->
    <title>computer</title>
    <desc>Created with Sketch.</desc>
    <defs>
        <filter x="-2.4%" y="-4.2%" width="104.8%" height="110.5%" filterUnits="objectBoundingBox" id="filter-1">
            <feOffset dx="0" dy="1" in="SourceAlpha" result="shadowOffsetOuter1"></feOffset>
            <feGaussianBlur stdDeviation="1.5" in="shadowOffsetOuter1" result="shadowBlurOuter1"></feGaussianBlur>
            <feColorMatrix values="0 0 0 0 0   0 0 0 0 0   0 0 0 0 0  0 0 0 0.5 0" type="matrix" in="shadowBlurOuter1" result="shadowMatrixOuter1"></feColorMatrix>
            <feMerge>
                <feMergeNode in="shadowMatrixOuter1"></feMergeNode>
                <feMergeNode in="SourceGraphic"></feMergeNode>
            </feMerge>
        </filter>
    </defs>
    <g id="Page-1" stroke="none" stroke-width="1" fill="none" fill-rule="evenodd">
        <g id="Timeline" transform="translate(-319.000000, -732.000000)" fill="#FFFFFF" fill-rule="nonzero">
            <g id="Timeline-Card3" filter="url(#filter-1)" transform="translate(391.500000, 759.500000) scale(-1, 1) translate(-391.500000, -759.500000) translate(288.000000, 712.000000)">
                <g id="computer" transform="translate(123.000000, 22.000000)">
                    <path d="M46.0084034,4.7168093 C46.0084034,4.18786311 45.5770818,3.75903614 45.0450586,3.75903614 L5.16502545,3.75903614 C4.63300224,3.75903614 4.20168067,4.18786311 4.20168067,4.7168093 L4.20168067,32.8735521 C4.20168067,33.4024983 4.63300224,33.8313253 5.16502545,33.8313253 L45.0450586,33.8313253 C45.5770818,33.8313253 46.0084034,33.4024983 46.0084034,32.8735521 L46.0084034,4.7168093 Z M6.12837022,31.915779 L6.12837022,27.5999255 L14.1051218,27.5999255 C14.4872486,28.5344567 15.4092338,29.1958309 16.4847119,29.1958309 C17.901214,29.1958309 19.0536313,28.0500788 19.0536313,26.6417692 C19.0536313,25.2334596 17.901214,24.0877075 16.4847119,24.0877075 C15.4088484,24.0877075 14.4867348,24.7494649 14.1047365,25.6843792 L6.12837022,25.6843792 L6.12837022,23.5526315 L20.9029963,23.5526315 L23.3245882,25.9602178 C23.1812425,26.2783262 23.0996793,26.6296374 23.0996793,27.0001041 C23.0996793,28.4084137 24.2520966,29.5541658 25.6685987,29.5541658 C27.0851009,29.5541658 28.2375181,28.4084137 28.2375181,27.0001041 C28.2375181,25.5917944 27.0851009,24.4460423 25.6685987,24.4460423 C25.3306574,24.4460423 25.0085149,24.5129587 24.7127038,24.6313395 L21.9830985,21.9175212 C21.8025035,21.737843 21.5574286,21.6369575 21.3019495,21.6369575 L6.12837022,21.6369575 L6.12837022,19.753337 L32.6004424,19.753337 C32.9825691,20.6878682 33.9045543,21.3491148 34.9800324,21.3491148 C36.3965346,21.3491148 37.5489518,20.2033627 37.5489518,18.795053 C37.5489518,17.3867434 36.3965346,16.2409913 34.9800324,16.2409913 C33.904169,16.2409913 32.9819269,16.9027487 32.600057,17.8377907 L6.12837022,17.8377907 L6.12837022,15.9541701 L12.760421,15.9541701 C13.0159,15.9541701 13.2609749,15.8532847 13.44157,15.6736065 L16.1720744,12.9588942 C16.4678854,13.077275 16.7898995,13.1441914 17.1278408,13.1441914 C18.544343,13.1441914 19.6967602,11.9984393 19.6967602,10.5901297 C19.6967602,9.18182003 18.544343,8.03606794 17.1278408,8.03606794 C15.7113387,8.03606794 14.5589214,9.18182003 14.5589214,10.5901297 C14.5589214,10.9605963 14.6404846,11.3120352 14.7838303,11.6301436 L12.3613393,14.0386238 L6.12837022,14.0386238 L6.12837022,5.67458245 L44.0818423,5.67458245 L44.0817138,8.03619564 L29.1192997,8.03619564 C28.8638207,8.03619564 28.6187457,8.13708108 28.4381507,8.31675932 L25.7076463,11.0314715 C25.4118352,10.9130908 25.0898212,10.8461744 24.7518798,10.8461744 C23.3353777,10.8461744 22.1829604,11.9919265 22.1829604,13.4002361 C22.1829604,14.8085458 23.3353777,15.9542978 24.7518798,15.9542978 C26.168382,15.9542978 27.3207992,14.8085458 27.3207992,13.4002361 C27.3207992,13.0296417 27.239236,12.6783306 27.0958903,12.3602222 L29.5183813,9.95174194 L44.0818423,9.95174194 L44.0818423,26.0428417 L36.4264625,26.0428417 C36.0445926,25.1077997 35.1223505,24.4460423 34.0464871,24.4460423 C32.6299849,24.4460423 31.4775677,25.5917944 31.4775677,27.0001041 C31.4775677,28.4084137 32.6299849,29.5541658 34.0464871,29.5541658 C35.1219652,29.5541658 36.0439504,28.8929192 36.4260771,27.958388 L44.0818423,27.958388 L44.0818423,31.915779 L6.12837022,31.915779 Z M15.842482,26.6417692 C15.842482,26.2896918 16.1305863,26.0032538 16.4847119,26.0032538 C16.8388374,26.0032538 17.1269417,26.2896918 17.1269417,26.6417692 C17.1269417,26.9938466 16.8388374,27.2802846 16.4847119,27.2802846 C16.1305863,27.2802846 15.842482,26.9937189 15.842482,26.6417692 Z M25.6685987,26.3615886 C26.0227242,26.3615886 26.3108286,26.6480267 26.3108286,27.0001041 C26.3108286,27.3521815 26.0227242,27.6386195 25.6685987,27.6386195 C25.3144732,27.6386195 25.0263689,27.3521815 25.0263689,27.0001041 C25.0263689,26.6480267 25.3146016,26.3615886 25.6685987,26.3615886 Z M34.3378025,18.7951807 C34.3378025,18.4431033 34.6259069,18.1566653 34.9800324,18.1566653 C35.3341579,18.1566653 35.6222622,18.4431033 35.6222622,18.7951807 C35.6222622,19.1472581 35.3341579,19.4336962 34.9800324,19.4336962 C34.6259069,19.4336962 34.3378025,19.1472581 34.3378025,18.7951807 Z M16.485611,10.5902574 C16.485611,10.23818 16.7737153,9.95174194 17.1278408,9.95174194 C17.4819664,9.95174194 17.7700707,10.23818 17.7700707,10.5902574 C17.7700707,10.9423348 17.4819664,11.2287728 17.1278408,11.2287728 C16.7737153,11.2287728 16.485611,10.9423348 16.485611,10.5902574 Z M25.3941097,13.4002361 C25.3941097,13.7523135 25.1060054,14.0387515 24.7518798,14.0387515 C24.3977543,14.0387515 24.10965,13.7523135 24.10965,13.4002361 C24.10965,13.0481587 24.3977543,12.7617207 24.7518798,12.7617207 C25.1060054,12.7617207 25.3941097,13.0481587 25.3941097,13.4002361 Z M34.6887169,27.0001041 C34.6887169,27.3521815 34.4006126,27.6386195 34.0464871,27.6386195 C33.6923615,27.6386195 33.4042572,27.3521815 33.4042572,27.0001041 C33.4042572,26.6480267 33.6923615,26.3615886 34.0464871,26.3615886 C34.4006126,26.3615886 34.6887169,26.6480267 34.6887169,27.0001041 Z" id="Shape"></path>
                    <path d="M46.2785366,40.1033059 L37.1155261,40.1033059 L37.1155261,37.8006209 L45.8394127,37.8006209 C47.9745167,37.8006209 49.7115244,36.0674667 49.7115244,33.9370993 L49.7115244,3.86352163 C49.7115244,1.73315424 47.9745167,0 45.8394127,0 L4.1604591,0 C2.02535508,0 0.288347381,1.73315424 0.288347381,3.86352163 L0.288347381,33.9370993 C0.288347381,36.0674667 2.02535508,37.8006209 4.1604591,37.8006209 L12.8847303,37.8006209 L12.8847303,40.1033059 L3.72146335,40.1033059 C1.66944031,40.1033059 0,41.7690427 0,43.8165134 L0,48.2867925 C0,50.3342633 1.66944031,52 3.72146335,52 L46.2785366,52 C48.3305597,52 50,50.3342633 50,48.2867925 L50,43.8165134 C49.9998718,41.7690427 48.3304315,40.1033059 46.2785366,40.1033059 Z M2.211518,33.9370993 L2.211518,3.86352163 C2.211518,2.79123799 3.08579136,1.91890416 4.1604591,1.91890416 L45.8394127,1.91890416 C46.9140804,1.91890416 47.7883538,2.79123799 47.7883538,3.86352163 L47.7883538,33.9370993 C47.7883538,35.0093829 46.9140804,35.8817168 45.8394127,35.8817168 L4.1604591,35.8817168 C3.08579136,35.8817168 2.211518,35.0093829 2.211518,33.9370993 Z M14.8080291,37.8006209 L35.1923555,37.8006209 L35.1923555,40.1033059 L14.8080291,40.1033059 L14.8080291,37.8006209 Z M48.0767012,48.2867925 C48.0767012,49.2761795 47.2699952,50.0810958 46.2784084,50.0810958 L3.72146335,50.0810958 C2.72987658,50.0810958 1.92317062,49.2761795 1.92317062,48.2867925 L1.92317062,43.8165134 C1.92317062,42.8271264 2.72987658,42.0222101 3.72146335,42.0222101 L46.2785366,42.0222101 C47.2701234,42.0222101 48.0768294,42.8271264 48.0768294,43.8165134 L48.0768294,48.2867925 L48.0767012,48.2867925 Z" id="Shape"></path>
                    <path d="M22.3562741,45.1084337 L5.79485805,45.1084337 C5.26306652,45.1084337 4.83193277,45.5291952 4.83193277,46.0481928 C4.83193277,46.5671904 5.26306652,46.9879518 5.79485805,46.9879518 L22.3564025,46.9879518 C22.888194,46.9879518 23.3193277,46.5671904 23.3193277,46.0481928 C23.3193277,45.5291952 22.8880656,45.1084337 22.3562741,45.1084337 Z" id="Shape"></path>
                    <path d="M44.621823,45.1084337 L41.7227148,45.1084337 C41.1889975,45.1084337 40.7563025,45.5291952 40.7563025,46.0481928 C40.7563025,46.5671904 41.1889975,46.9879518 41.7227148,46.9879518 L44.621823,46.9879518 C45.1555403,46.9879518 45.5882353,46.5671904 45.5882353,46.0481928 C45.5882353,45.5291952 45.1555403,45.1084337 44.621823,45.1084337 Z" id="Shape"></path>
                </g>
            </g>
        </g>
    </g>
</svg>