<?xml version="1.0" encoding="UTF-8"?>
<svg width="57px" height="63px" viewBox="0 0 57 63" version="1.1" xmlns="http://www.w3.org/2000/svg" xmlns:xlink="http://www.w3.org/1999/xlink">
    <!-- Generator: Sketch 51.1 (57501) - http://www.bohemiancoding.com/sketch -->
    <title>customer-service</title>
    <desc>Created with Sketch.</desc>
    <defs>
        <filter x="-2.5%" y="-4.2%" width="105.0%" height="110.5%" filterUnits="objectBoundingBox" id="filter-1">
            <feOffset dx="0" dy="1" in="SourceAlpha" result="shadowOffsetOuter1"></feOffset>
            <feGaussianBlur stdDeviation="1.5" in="shadowOffsetOuter1" result="shadowBlurOuter1"></feGaussianBlur>
            <feColorMatrix values="0 0 0 0 0   0 0 0 0 0   0 0 0 0 0  0 0 0 0.5 0" type="matrix" in="shadowBlurOuter1" result="shadowMatrixOuter1"></feColorMatrix>
            <feMerge>
                <feMergeNode in="shadowMatrixOuter1"></feMergeNode>
                <feMergeNode in="SourceGraphic"></feMergeNode>
            </feMerge>
        </filter>
    </defs>
    <g id="Page-1" stroke="none" stroke-width="1" fill="none" fill-rule="evenodd">
        <g id="Timeline" transform="translate(-318.000000, -614.000000)" fill="#FFFFFF" fill-rule="nonzero">
            <g id="Timeline-Card3" filter="url(#filter-1)" transform="translate(388.500000, 644.525974) scale(-1, 1) translate(-388.500000, -644.525974) translate(288.000000, 597.025974)">
                <g id="customer-service" transform="translate(117.311170, 18.909091)">
                    <path d="M40.7669824,37.1315795 C38.5470538,40.1442253 34.9510718,42.1063852 30.8994947,42.1063852 L25.2145554,42.1063852 C23.2507161,42.1063852 21.5783308,40.8744322 20.9450585,39.1501317 C20.1633763,38.9197429 19.3968156,38.6206714 18.6487909,38.253399 C17.0646954,37.4757166 15.626327,36.4220979 14.3601482,35.1168831 C6.14699755,36.8997448 0,44.1309623 0,52.7819864 L0,53.9127227 C0,55.4671235 1.27532486,56.7272727 2.84844503,56.7272727 L47.0425124,56.7272727 C48.6156326,56.7272727 49.8909574,55.4671235 49.8909574,53.9127227 L49.8909574,52.7819864 C49.8908355,46.0990266 46.2222949,40.263155 40.7669824,37.1315795 Z" id="Shape"></path>
                    <path d="M11.3336438,28.6834364 C12.557792,28.6834364 13.6232972,27.9960559 14.1753162,26.9816631 C14.1898269,27.0218138 14.2045816,27.0617174 14.2194582,27.1016211 C14.223848,27.1136045 14.2282378,27.125588 14.2326276,27.1375714 C15.5276225,30.5910286 18.0473752,33.4860818 21.369976,34.7510152 C22.1735556,33.4574203 23.5945137,32.5970828 25.2147206,32.5970828 L30.8992847,32.5970828 C31.4663022,32.5970828 31.9940553,32.4349973 32.4566928,32.1729675 C33.2336897,31.7327919 33.9324016,30.6161074 34.2932199,30.0242238 C34.8706023,29.0770371 35.3179974,28.073763 35.7146658,26.9799335 C35.9375707,27.3900887 36.244126,27.7468742 36.611407,28.0264469 L36.611407,29.4386408 C36.611407,32.6296975 34.0489756,35.2259057 30.8991627,35.2259057 L25.2145987,35.2259057 C24.139948,35.2259057 23.2686921,36.1086041 23.2686921,37.1973684 C23.2686921,38.2862563 24.139948,39.1688312 25.2145987,39.1688312 L30.8991627,39.1688312 C36.1948625,39.1688312 40.5032202,34.8038906 40.5032202,29.4386408 L40.5032202,28.0264469 C41.2909478,27.4269038 41.8005319,26.4726753 41.8005319,25.3977475 L41.8005319,19.4530918 L41.8005319,17.1735185 C41.8005319,16.0764769 41.2694865,15.1058175 40.4540787,14.5089923 C39.8217017,6.40138575 33.1077265,0 24.9454787,0 C16.783109,0 10.0692557,6.40138575 9.43687876,14.5088688 C8.62147098,15.105694 8.09042553,16.0764769 8.09042553,17.173395 L8.09042553,25.3975004 C8.09042553,27.2173787 9.54967257,28.6834364 11.3336438,28.6834364 Z M24.9454787,3.94304904 C30.9878126,3.94304904 35.9715918,8.62128888 36.5540956,14.5904057 C36.1716941,14.8951806 35.8584321,15.2847045 35.6425997,15.7316748 C33.8064384,10.8782542 29.7075724,7.49916856 24.9453568,7.49916856 C20.0804684,7.49916856 16.0473276,10.9943825 14.2553083,15.7122789 C14.2528695,15.718703 14.2505527,15.7252507 14.2481139,15.7317983 C14.0322814,15.284828 13.7190195,14.8953042 13.336618,14.5905292 C13.9194876,8.62128888 18.9031449,3.94304904 24.9454787,3.94304904 Z" id="Shape"></path>
                </g>
            </g>
        </g>
    </g>
</svg>