<?xml version="1.0" encoding="UTF-8"?>
<svg width="65px" height="65px" viewBox="0 0 65 65" version="1.1" xmlns="http://www.w3.org/2000/svg" xmlns:xlink="http://www.w3.org/1999/xlink">
    <!-- Generator: Sketch 51.1 (57501) - http://www.bohemiancoding.com/sketch -->
    <title>diploma</title>
    <desc>Created with Sketch.</desc>
    <defs>
        <filter x="-2.5%" y="-4.1%" width="105.0%" height="110.3%" filterUnits="objectBoundingBox" id="filter-1">
            <feOffset dx="0" dy="1" in="SourceAlpha" result="shadowOffsetOuter1"></feOffset>
            <feGaussianBlur stdDeviation="1.5" in="shadowOffsetOuter1" result="shadowBlurOuter1"></feGaussianBlur>
            <feColorMatrix values="0 0 0 0 0   0 0 0 0 0   0 0 0 0 0  0 0 0 0.5 0" type="matrix" in="shadowBlurOuter1" result="shadowMatrixOuter1"></feColorMatrix>
            <feMerge>
                <feMergeNode in="shadowMatrixOuter1"></feMergeNode>
                <feMergeNode in="SourceGraphic"></feMergeNode>
            </feMerge>
        </filter>
    </defs>
    <g id="Page-1" stroke="none" stroke-width="1" fill="none" fill-rule="evenodd">
        <g id="Timeline" transform="translate(-136.000000, -788.000000)" fill="#FFFFFF" fill-rule="nonzero">
            <g id="Timeline-Card5" filter="url(#filter-1)" transform="translate(20.226064, 772.259740)">
                <g id="diploma" transform="translate(119.000000, 18.000000)">
                    <path d="M56.1290323,35.7205161 L56.1290323,23.3870968 C56.1290323,22.4179355 55.477,21.5591613 54.5424516,21.3000323 L46.7741935,19.141871 L46.7741935,3.74193548 L20.9183548,3.74193548 C20.8650323,3.683 20.8182581,3.6193871 20.7611935,3.56232258 C19.5516129,2.35180645 17.8162903,1.92335484 16.2166129,2.37425806 C15.3999355,0.922387097 13.8713548,0 12.1612903,0 C10.4512258,0 8.92264516,0.922387097 8.10690323,2.37332258 C6.50535484,1.92429032 4.77096774,2.35180645 3.56232258,3.56232258 C2.35274194,4.77190323 1.92429032,6.50535484 2.37425806,8.10690323 C0.922387097,8.92264516 0,10.4512258 0,12.1612903 C0,13.8713548 0.922387097,15.3999355 2.37425806,16.2156774 C1.92429032,17.8181613 2.35274194,19.5506774 3.56232258,20.7602581 C4.14793548,21.345871 4.85609677,21.7490645 5.61290323,21.9576774 L5.61290323,34.740129 L7.48387097,33.1806774 L7.48387097,58 L35.001129,58 L46.7741935,46.226 L46.7741935,33.1806774 L52.3870968,31.5772581 L52.3870968,26.0738065 L54.2580645,25.5536774 L54.2580645,35.7214516 C53.1719677,36.1087419 52.3870968,37.1377742 52.3870968,38.3557742 L52.3870968,44.9041613 L58,44.9041613 L58,38.3557742 C58,37.1368387 57.215129,36.1078065 56.1290323,35.7205161 Z M22.4516129,12.1612903 C22.4516129,13.3867742 21.6555161,14.4569677 20.4711935,14.8255484 L20.098871,14.9415484 C20.4057097,14.0696774 20.5806452,13.1360645 20.5806452,12.1612903 C20.5806452,11.1865161 20.4057097,10.2529032 20.098871,9.38196774 L20.4711935,9.49796774 C21.6555161,9.8656129 22.4516129,10.9358065 22.4516129,12.1612903 Z M19.4374839,19.4374839 C18.5721613,20.3037419 17.2521935,20.4983226 16.1539355,19.921129 L15.806871,19.7387097 C17.5216129,18.9108065 18.909871,17.5216129 19.7387097,15.806871 L19.921129,16.1539355 C20.4983226,17.2512581 20.3046774,18.5712258 19.4374839,19.4374839 Z M16.1539355,4.40145161 C17.2512581,3.8223871 18.5721613,4.01790323 19.4374839,4.88509677 C20.3037419,5.75135484 20.4983226,7.07132258 19.921129,8.16864516 L19.7387097,8.51570968 C18.909871,6.80096774 17.5216129,5.41270968 15.806871,4.58387097 L16.1539355,4.40145161 Z M9.49796774,3.8513871 C9.8656129,2.66706452 10.9358065,1.87096774 12.1612903,1.87096774 C13.3867742,1.87096774 14.4569677,2.66706452 14.8255484,3.8513871 L14.9415484,4.22370968 C14.0696774,3.91687097 13.1360645,3.74193548 12.1612903,3.74193548 C11.1865161,3.74193548 10.2529032,3.91687097 9.38196774,4.22370968 L9.49796774,3.8513871 Z M12.1612903,5.61290323 C15.7722581,5.61290323 18.7096774,8.55032258 18.7096774,12.1612903 C18.7096774,15.7722581 15.7722581,18.7096774 12.1612903,18.7096774 C8.55032258,18.7096774 5.61290323,15.7722581 5.61290323,12.1612903 C5.61290323,8.55032258 8.55032258,5.61290323 12.1612903,5.61290323 Z M14.9406129,20.098871 L14.8246129,20.4711935 C14.4569677,21.6555161 13.3867742,22.4516129 12.1612903,22.4516129 C10.9358065,22.4516129 9.8656129,21.6555161 9.49703226,20.4711935 L9.38103226,20.098871 C10.2529032,20.4057097 11.1865161,20.5806452 12.1612903,20.5806452 C13.1360645,20.5806452 14.0696774,20.4057097 14.9406129,20.098871 Z M4.88509677,4.88509677 C5.75135484,4.01883871 7.07132258,3.82332258 8.16864516,4.40145161 L8.51570968,4.58387097 C6.80096774,5.41270968 5.41270968,6.80096774 4.58387097,8.51570968 L4.40145161,8.16864516 C3.82425806,7.07132258 4.01790323,5.75135484 4.88509677,4.88509677 Z M1.87096774,12.1612903 C1.87096774,10.9358065 2.66706452,9.8656129 3.8513871,9.49703226 L4.22370968,9.38103226 C3.91687097,10.2529032 3.74193548,11.1865161 3.74193548,12.1612903 C3.74193548,13.1360645 3.91687097,14.0696774 4.22370968,14.9406129 L3.8513871,14.8246129 C2.66706452,14.4569677 1.87096774,13.3867742 1.87096774,12.1612903 Z M4.88509677,19.4374839 C4.01883871,18.5712258 3.82425806,17.2512581 4.40145161,16.1539355 L4.58387097,15.806871 C5.41177419,17.5216129 6.80096774,18.909871 8.51570968,19.7387097 L8.16864516,19.921129 C7.0703871,20.4973871 5.75041935,20.3037419 4.88509677,19.4374839 Z M7.48387097,22.0792903 C7.69248387,22.0502903 7.90109677,22.0072581 8.10690323,21.9492581 C8.92264516,23.4001935 10.4512258,24.3225806 12.1612903,24.3225806 C13.8713548,24.3225806 15.3999355,23.4001935 16.2156774,21.9492581 C16.4214839,22.0072581 16.6291613,22.0502903 16.8387097,22.0792903 L16.8387097,30.7446774 L12.1612903,26.8465161 L7.48387097,30.7446774 L7.48387097,22.0792903 Z M44.9032258,44.9032258 L33.6774194,44.9032258 L33.6774194,54.2580645 L35.5483871,54.2580645 L35.5483871,46.7741935 L43.5804516,46.7741935 L34.2256129,56.1290323 L9.35483871,56.1290323 L9.35483871,31.6212258 L12.1612903,29.2825161 L18.7096774,34.7391935 L18.7096774,21.9576774 C19.4664839,21.7490645 20.1746452,21.3468065 20.7602581,20.7611935 C21.9698387,19.5516129 22.3982903,17.8181613 21.9483226,16.2166129 C23.4001935,15.3999355 24.3225806,13.8713548 24.3225806,12.1612903 C24.3225806,10.4512258 23.4001935,8.92264516 21.9483226,8.10690323 C22.1812581,7.27993548 22.1747097,6.41929032 21.9520645,5.61290323 L44.9032258,5.61290323 L44.9032258,18.6217419 L38.3548387,16.8022258 L22.1672258,21.2990968 C21.2326774,21.5591613 20.5806452,22.4179355 20.5806452,23.3870968 C20.5806452,24.3562581 21.2326774,25.2150323 22.1672258,25.4741613 L24.3225806,26.072871 L24.3225806,31.5763226 L38.3548387,35.5858065 L44.9032258,33.7148387 L44.9032258,44.9032258 Z M50.516129,30.1656129 L38.3548387,33.64 L26.1935484,30.1656129 L26.1935484,26.593 L38.3548387,29.9710323 L50.516129,26.593 L50.516129,30.1656129 Z M54.0419677,23.6714839 L38.3548387,28.0289677 L22.6677097,23.6714839 C22.5404839,23.6359355 22.4516129,23.519 22.4516129,23.3870968 C22.4516129,23.2551935 22.5404839,23.1382581 22.6677097,23.1027097 L38.3548387,18.7452258 L54.0419677,23.1027097 C54.1691935,23.1382581 54.2580645,23.2551935 54.2580645,23.3870968 C54.2580645,23.519 54.1691935,23.6359355 54.0419677,23.6714839 Z M56.1290323,43.0322581 L54.2580645,43.0322581 L54.2580645,38.3548387 C54.2580645,37.8393871 54.6780968,37.4193548 55.1935484,37.4193548 C55.709,37.4193548 56.1290323,37.8393871 56.1290323,38.3548387 L56.1290323,43.0322581 Z" id="Shape"></path>
                </g>
            </g>
        </g>
    </g>
</svg>