<?xml version="1.0" encoding="UTF-8"?>
<svg width="442px" height="442px" viewBox="0 0 442 442" version="1.1" xmlns="http://www.w3.org/2000/svg" xmlns:xlink="http://www.w3.org/1999/xlink">
    <!-- Generator: Sketch 51.1 (57501) - http://www.bohemiancoding.com/sketch -->
    <title>cv</title>
    <desc>Created with Sketch.</desc>
    <defs></defs>
    <g id="Page-1" stroke="none" stroke-width="1" fill="none" fill-rule="evenodd">
        <g id="Group" transform="translate(-257.000000, -75.000000)" fill="#FFFFFF" fill-rule="nonzero">
            <g id="cv" transform="translate(257.000000, 75.000000)">
                <path d="M221,442 C98.9450703,442 0,343.05493 0,221 C0,98.9450703 98.9450703,0 221,0 C343.05493,0 442,98.9450703 442,221 C442,343.05493 343.05493,442 221,442 Z M120,77 C115.029437,77 111,81.0294373 111,86 L111,356 C111,360.970563 115.029437,365 120,365 L322,365 C326.970563,365 331,360.970563 331,356 L331,86 C331,81.0294373 326.970563,77 322,77 L120,77 Z" id="Combined-Shape"></path>
                <polygon id="Triangle" transform="translate(331.517397, 75.500000) rotate(45.000000) translate(-331.517397, -75.500000) " points="331.517397 35.9143219 371.103075 115.085678 291.931719 115.085678"></polygon>
                <path d="M269,77 L277,77 L277,139 L273,139 C270.790861,139 269,137.209139 269,135 L269,77 Z" id="Rectangle-3"></path>
                <rect id="Rectangle-4" x="277" y="131" width="54" height="8"></rect>
            </g>
        </g>
    </g>
</svg>