<svg width="30" height="30" viewBox="0 0 30 30" fill="none" xmlns="http://www.w3.org/2000/svg">
<g clip-path="url(#clip0_1_14)">
<path d="M30 15C30 23.2843 23.2843 30 15 30C6.71573 30 0 23.2843 0 15C0 6.71573 6.71573 0 15 0C23.2843 0 30 6.71573 30 15Z" fill="rgb(205, 167, 135)"/>
<mask id="mask0_1_14" style="mask-type:alpha" maskUnits="userSpaceOnUse" x="4" y="4" width="22" height="22">
<path d="M26 15C26 21.0751 21.0751 26 15 26C8.92487 26 4 21.0751 4 15C4 8.92487 8.92487 4 15 4C21.0751 4 26 8.92487 26 15Z" fill="white"/>
</mask>
<g mask="url(#mask0_1_14)">
<rect x="6" y="8" width="17" height="18" fill="rgb(37, 42, 54)"/>
<path d="M15 3C8.374 3 3 8.50883 3 15.3034C3 20.7394 6.438 25.3511 11.207 26.9782C11.806 27.092 12 26.7106 12 26.3866V24.0962C8.662 24.8405 7.967 22.6444 7.967 22.6444C7.421 21.2223 6.634 20.844 6.634 20.844C5.545 20.0801 6.717 20.0965 6.717 20.0965C7.922 20.1827 8.556 21.3648 8.556 21.3648C9.626 23.2452 11.363 22.7018 12.048 22.387C12.155 21.5924 12.466 21.049 12.81 20.7425C10.145 20.4298 7.343 19.3748 7.343 14.6615C7.343 13.3174 7.812 12.2203 8.579 11.3591C8.455 11.0485 8.044 9.79658 8.696 8.10282C8.696 8.10282 9.704 7.77268 11.997 9.36391C12.954 9.09119 13.98 8.95483 15 8.9497C16.02 8.95483 17.047 9.09119 18.006 9.36391C20.297 7.77268 21.303 8.10282 21.303 8.10282C21.956 9.79761 21.545 11.0495 21.421 11.3591C22.191 12.2203 22.656 13.3184 22.656 14.6615C22.656 19.3871 19.849 20.4277 17.177 20.7322C17.607 21.1136 18 21.8621 18 23.0104V26.3866C18 26.7137 18.192 27.0982 18.801 26.9772C23.566 25.348 27 20.7374 27 15.3034C27 8.50883 21.627 3 15 3Z" fill="rgb(205, 167, 135)"/>
</g>
</g>
<defs>
<clipPath id="clip0_1_14">
<rect width="30" height="30" fill="white"/>
</clipPath>
</defs>
</svg>
