<?xml version="1.0" encoding="UTF-8"?>
<svg width="57px" height="71px" viewBox="0 0 57 71" version="1.1" xmlns="http://www.w3.org/2000/svg" xmlns:xlink="http://www.w3.org/1999/xlink">
    <!-- Generator: Sketch 51.1 (57501) - http://www.bohemiancoding.com/sketch -->
    <title>graduate-student-avatar</title>
    <desc>Created with Sketch.</desc>
    <defs>
        <filter x="-2.5%" y="-4.0%" width="105.0%" height="109.9%" filterUnits="objectBoundingBox" id="filter-1">
            <feOffset dx="0" dy="1" in="SourceAlpha" result="shadowOffsetOuter1"></feOffset>
            <feGaussianBlur stdDeviation="1.5" in="shadowOffsetOuter1" result="shadowBlurOuter1"></feGaussianBlur>
            <feColorMatrix values="0 0 0 0 0   0 0 0 0 0   0 0 0 0 0  0 0 0 0.5 0" type="matrix" in="shadowBlurOuter1" result="shadowMatrixOuter1"></feColorMatrix>
            <feMerge>
                <feMergeNode in="shadowMatrixOuter1"></feMergeNode>
                <feMergeNode in="SourceGraphic"></feMergeNode>
            </feMerge>
        </filter>
    </defs>
    <g id="Page-1" stroke="none" stroke-width="1" fill="none" fill-rule="evenodd">
        <g id="Timeline" transform="translate(-134.000000, -655.000000)" fill="#FFFFFF" fill-rule="nonzero">
            <g id="Timeline-Card2" filter="url(#filter-1)" transform="translate(20.226064, 642.259740)">
                <g id="graduate-student-avatar" transform="translate(117.311170, 14.857143)">
                    <path d="M44.862386,46.273 C44.381081,45.1681594 43.2221337,44.4607404 42.1164528,44.0257305 L34.6418443,40.7237381 L31.0506924,37.8181818 L25.2804614,43.3242243 L25.2760592,43.3242243 L27.7663725,59.2949995 C27.7753236,59.3497628 27.760503,59.4057932 27.7266062,59.4505612 L25.1228633,62.8691194 C25.0814828,62.9241644 25.0154501,62.9559806 24.9450152,62.9559806 C24.8745804,62.9559806 24.8085477,62.923742 24.7671672,62.8691194 L22.1637178,59.4505612 C22.1293808,59.4057932 22.1150003,59.3493405 22.123658,59.2949995 L24.6136778,43.3239427 L24.6098626,43.3239427 L18.839925,37.8181818 L15.2487731,40.7237381 L7.77372444,44.0257305 C6.66775004,44.4607404 5.58099848,45.1214204 5.02808465,46.273 C5.02808465,46.273 -3.09701933,64.8311688 1.31000326,64.8311688 L48.5813479,64.8311688 C52.9876368,64.8315912 44.862386,46.273 44.862386,46.273 Z" id="Shape"></path>
                    <path d="M45.0356345,19.7772394 C45.1462752,19.7647553 45.2458085,19.7097052 45.3143279,19.620512 C45.3837127,19.5314692 45.4150152,19.4167063 45.4027539,19.302545 C45.3205307,18.5701981 45.2378747,17.8393553 45.1563728,17.1070084 L44.9851466,15.5744796 C44.9590371,15.3457058 44.7627112,15.1793522 44.5417183,15.1999584 L44.2239329,15.2004097 L44.2299915,10.0560825 L44.3963131,9.99306071 L44.950959,9.78429145 C45.420641,9.60710832 45.7333777,9.14279227 45.7333777,8.62252365 C45.7333777,8.10210461 45.420641,7.63763815 44.950959,7.46030461 L25.3483724,0.0736633588 C25.0877104,-0.0245544529 24.80267,-0.0245544529 24.5425851,0.0736633588 L4.9397099,7.46030461 C4.47031643,7.63763815 4.15757979,8.10210461 4.15757979,8.62252365 C4.15757979,9.14279227 4.47031643,9.60710832 4.9397099,9.78429145 L12.1863141,12.5149873 C11.6747993,14.1988286 11.4419779,16.1267856 11.4628943,18.2732885 C11.5904124,30.5169735 18.4068595,37.8181818 24.7140998,37.8181818 C30.9476277,37.8181818 37.8379314,30.5169735 37.9648725,18.2732885 C37.9859332,16.1928157 37.7659501,14.3188559 37.2873245,12.6723163 L42.5565331,10.6869026 L42.5676404,15.202365 L42.249278,15.2022146 C42.0281408,15.1820596 41.8316707,15.3478116 41.8064267,15.5783903 L41.394301,19.3067565 C41.3818954,19.4203161 41.4140634,19.5338758 41.4830155,19.6232194 C41.5521118,19.7121118 41.6526549,19.7691172 41.7617088,19.778593 L45.0356345,19.7772394 Z M24.7149653,34.8448745 C19.2120698,34.8448745 15.4149449,28.1233468 14.648971,21.4040753 C13.9406975,15.1900314 22.5594193,14.9007927 23.059971,18.7523448 C23.2141756,19.9363733 21.9102888,21.2047818 22.0581463,21.6937652 C22.7874805,24.1076973 34.8636155,13.8148316 34.7811038,21.4010671 C34.7229706,26.757322 29.9580643,34.8448745 24.7149653,34.8448745 Z" id="Shape"></path>
                </g>
            </g>
        </g>
    </g>
</svg>