<?xml version="1.0" encoding="UTF-8"?>
<svg width="3056px" height="1858px" viewBox="0 0 3056 1858" version="1.1" xmlns="http://www.w3.org/2000/svg" xmlns:xlink="http://www.w3.org/1999/xlink">
    <!-- Generator: Sketch 51.1 (57501) - http://www.bohemiancoding.com/sketch -->
    <title>Original_Large</title>
    <desc>Created with Sketch.</desc>
    <defs></defs>
    <g id="Page-1" stroke="none" stroke-width="1" fill="none" fill-rule="evenodd">
        <g id="Original_Large" transform="translate(-1.000000, 0.000000)" fill-rule="nonzero">
            <g id="M" transform="translate(131.000000, 101.000000)" stroke="#FFFFFF" stroke-linecap="square" stroke-width="10">
                <path d="M939,1147.48207 L1439.51449,1.2250996" id="Line" transform="translate(1189.086957, 574.241036) scale(1, -1) translate(-1189.086957, -574.241036) "></path>
                <path d="M3.48550725,1746.51594 L934.115942,1" id="Line"></path>
            </g>
            <g id="A" transform="translate(1337.000000, 101.000000)" stroke="#FFFFFF" stroke-linecap="square" stroke-width="10">
                <path d="M3.48669202,1739.54781 L903.100995,4.68900867" id="Line"></path>
                <path d="M66.2471483,1746.51594 L903.100995,144.051558" id="Line"></path>
                <path d="M906.539924,1743 L1713,1.36415011e-12" id="Line" transform="translate(1310.039924, 872.000000) scale(1, -1) translate(-1310.039924, -872.000000) "></path>
            </g>
            <path d="M73.006938,1857.93211 L0.982691403,1696.163 L902.846649,0.0035860084 L1026.05283,65.5134744 L73.006938,1857.93211 Z" id="Combined-Shape" fill="#FFFFFF"></path>
            <path d="M1598.0158,1228.93532 L1525.98839,1067.1591 L2083.83363,18.0047714 L2207.04524,83.5175426 L1598.0158,1228.93532 Z" id="Combined-Shape" fill="#FFFFFF"></path>
        </g>
    </g>
</svg>