<?xml version="1.0" encoding="UTF-8"?>
<svg width="63px" height="53px" viewBox="0 0 63 53" version="1.1" xmlns="http://www.w3.org/2000/svg" xmlns:xlink="http://www.w3.org/1999/xlink">
    <!-- Generator: Sketch 51.1 (57501) - http://www.bohemiancoding.com/sketch -->
    <title>open-magazine</title>
    <desc>Created with Sketch.</desc>
    <defs>
        <filter x="-2.5%" y="-4.0%" width="105.0%" height="110.0%" filterUnits="objectBoundingBox" id="filter-1">
            <feOffset dx="0" dy="1" in="SourceAlpha" result="shadowOffsetOuter1"></feOffset>
            <feGaussianBlur stdDeviation="1.5" in="shadowOffsetOuter1" result="shadowBlurOuter1"></feGaussianBlur>
            <feColorMatrix values="0 0 0 0 0   0 0 0 0 0   0 0 0 0 0  0 0 0 0.5 0" type="matrix" in="shadowBlurOuter1" result="shadowMatrixOuter1"></feColorMatrix>
            <feMerge>
                <feMergeNode in="shadowMatrixOuter1"></feMergeNode>
                <feMergeNode in="SourceGraphic"></feMergeNode>
            </feMerge>
        </filter>
    </defs>
    <g id="Page-1" stroke="none" stroke-width="1" fill="none" fill-rule="evenodd">
        <g id="Timeline" transform="translate(-132.000000, -365.000000)" fill="#FFFFFF" fill-rule="nonzero">
            <g id="Timeline-Card2" filter="url(#filter-1)" transform="translate(20.226064, 343.129870)">
                <g id="open-magazine" transform="translate(114.817129, 24.398827)">
                    <path d="M28.3215586,38.4970004 L28.3215586,10.4058209 C28.3215586,9.88614577 27.9694272,9.46506219 27.5348486,9.46506219 C27.10027,9.46506219 26.7481386,9.88614577 26.7481386,10.4058209 L26.7481386,38.4970004 C26.7481386,39.0166755 27.10027,39.4377591 27.5348486,39.4377591 C27.9694272,39.4377591 28.3215586,39.0166755 28.3215586,38.4970004 Z" id="Shape"></path>
                    <path d="M55.7295184,4.08697558 C53.7980491,4.08697558 51.3912647,3.2561256 48.8430553,2.37658067 C45.6159812,1.2625471 41.958054,0 38.1645487,0 C33.7750117,0 31.0970713,1.91756095 29.6236194,3.52619435 C29.0725367,4.1280202 28.6454597,4.7310604 28.3216804,5.26597624 C27.997901,4.7310604 27.5708241,4.1280202 27.0197414,3.52619435 C25.5461676,1.91756095 22.868349,0 18.478812,0 C14.6851849,0 11.0273795,1.2625471 7.80030538,2.37658067 C5.25185237,3.2561256 2.84506805,4.08697558 0.913598663,4.08697558 C0.408926762,4.08697558 0,4.49462881 0,4.997729 L0,41.681905 C0,42.1850052 0.408926762,42.5926584 0.913598663,42.5926584 C3.15252445,42.5926584 5.70049022,41.7131135 8.39792072,40.7819592 C11.4889295,39.7150419 14.9923977,38.5056828 18.4785684,38.5056828 C21.4678632,38.5056828 23.8874379,39.4924538 25.6701734,41.4385517 C26.0102757,41.8098962 26.5882792,41.8360045 26.9609056,41.4968399 C27.333532,41.1576753 27.3596001,40.5815935 27.0193759,40.2101275 C25.5458022,38.6016155 22.8679836,36.6840546 18.4785684,36.6840546 C14.6849413,36.6840546 11.0271359,37.9466017 7.80006176,39.0606353 C5.63970545,39.806603 3.58081951,40.5171121 1.82719733,40.7162635 L1.82719733,5.86330904 C3.83601807,5.67253656 6.06081353,4.90446785 8.39792072,4.09778319 C11.4889295,3.03086593 14.9923977,1.82150683 18.4785684,1.82150683 C25.5292356,1.82150683 27.373974,7.40284661 27.4481582,7.63745669 C27.5660734,8.01973026 27.920306,8.2808129 28.3215586,8.2808129 C28.7228111,8.2808129 29.0770437,8.01985169 29.1949589,7.63745669 C29.2127436,7.5792899 31.0688106,1.82150683 38.1645487,1.82150683 C41.6507194,1.82150683 45.1541876,3.03086593 48.2451964,4.09778319 C50.5824254,4.90458928 52.807099,5.67253656 54.8159198,5.86330904 L54.8159198,40.7162635 C53.0622976,40.5171121 51.0034116,39.806603 48.8430553,39.0607567 C45.6159812,37.9467231 41.958054,36.684176 38.1645487,36.684176 C33.7748899,36.684176 31.0969495,38.601737 29.6236194,40.2103704 C29.2833952,40.5819578 29.3095851,41.1579182 29.6820897,41.4970828 C30.0548379,41.8362474 30.6327195,41.8101391 30.9728219,41.4387946 C32.7555574,39.4925752 35.1751321,38.5058043 38.1645487,38.5058043 C41.6507194,38.5058043 45.1541876,39.7151634 48.2451964,40.7820806 C50.9427487,41.7132349 53.4907145,42.5927799 55.7295184,42.5927799 C56.2341903,42.5927799 56.6431171,42.1851266 56.6431171,41.6820264 L56.6431171,4.997729 C56.6431171,4.49475024 56.2341903,4.08697558 55.7295184,4.08697558 Z" id="Shape"></path>
                    <path d="M55.7296383,44.288824 C53.7981647,44.288824 51.3913753,43.6233361 48.8431604,42.9188449 C45.6160793,42.0265348 41.9581442,41.0152695 38.1646308,41.0152695 C34.0420993,41.0152695 31.4294452,42.3699779 29.9061684,43.6021323 L26.7369487,43.602035 C25.2136719,42.3698807 22.600896,41.0152695 18.4786081,41.0152695 C14.6849729,41.0152695 11.0271596,42.0265348 7.80007853,42.9188449 C5.25186366,43.6233361 2.84507417,44.288824 0.913600628,44.288824 C0.408927641,44.288824 0,44.6153429 0,45.0183123 C0,45.4212816 0.408927641,45.7478006 0.913600628,45.7478006 C3.15253123,45.7478006 5.70050248,45.0433094 8.39793878,44.2974806 C11.4889542,43.4429093 14.9924299,42.4742461 18.4786081,42.4742461 C21.4679094,42.4742461 23.8874893,43.2646224 25.6702286,44.823393 C25.8433255,44.9747375 26.0881705,45.0609144 26.3448313,45.0609144 L30.298164,45.0610117 C30.5548248,45.0610117 30.7996698,44.9747375 30.9727667,44.8234903 C32.755506,43.2646224 35.1750859,42.4742461 38.164509,42.4742461 C41.6506872,42.4742461 45.1541629,43.4429093 48.2451783,44.2974806 C50.9427364,45.0433094 53.4907077,45.7478006 55.7295165,45.7478006 C56.2341895,45.7478006 56.6431171,45.4212816 56.6431171,45.0183123 C56.6431171,44.6153429 56.2343113,44.288824 55.7296383,44.288824 Z" id="Shape"></path>
                </g>
            </g>
        </g>
    </g>
</svg>